<svg id="Layer_1" data-name="Layer 1" xmlns="http://www.w3.org/2000/svg" viewBox="0 0 946.03 946.03"><defs><style>.cls-1{fill:#c337ff;}</style></defs><title>logo_clubin</title><path class="cls-1" d="M603.88,269.3c-261.24,0-473,211.78-473,473s211.78,473,473,473,473-211.78,473-473S865.12,269.3,603.88,269.3Zm193,284.29c0.06-.27.12-0.55,0.18-0.82s0.13-.56.2-0.84,0.15-.55.23-0.83,0.19-.7.29-1,0.21-.66.32-1a46,46,0,0,1,4.18-9.22,45.66,45.66,0,1,1-5,34.59h0A45.46,45.46,0,0,1,796.87,553.59ZM495.73,534.11l-4.91,3.44-1.17.81c-0.54.37-1.09,0.74-1.62,1.14l-2.74,2.08c-0.67.52-1.36,1-2.05,1.55-1.13.84-2.3,1.7-3.38,2.64l-5.38,4.45c-28.59,24.41-51.68,57.05-66.76,94.39A279.75,279.75,0,0,0,398,673.42a264.62,264.62,0,0,0-6.22,29.95,219.32,219.32,0,0,0-2.55,30.44,223.78,223.78,0,0,0,1.37,30.31l0.82,6.57,0.13,0.75c0.36,2.11.7,4.25,1,6.37l1.89,9.46L396,793.7a236.11,236.11,0,0,0,9.64,28.91,243.23,243.23,0,0,0,74.26,97.82c1.68,1.37,3.45,2.66,5.16,3.9l1,0.71c1.4,1.07,2.87,2.07,4.29,3l2,1.36c4,2.76,8.2,5.42,12.84,8.13a215.82,215.82,0,0,0,26.9,13.23l1.58,0.64,1.47,0.57,2.93,1.17,0.28,0.11c0.13,0.05.26,0.11,0.47,0.18l8.89,2.93L553,958l7.08,1.85a193.51,193.51,0,0,0,29.06,4.77,220.44,220.44,0,0,0,59.19-2.63,227,227,0,0,0,79.27-30.24c-4.46,16.64-9.29,33.17-14.71,49.55q-7.33,22.18-16.21,43.79c-6.2,14.38-13.15,28.36-20.3,42.28l-2.83.81a312.62,312.62,0,0,1-84.18,11.52q-2.86,0-5.72-.05a310.54,310.54,0,0,1-46.86-4.61l-1-.2c-3.5-.67-7.13-1.37-10.69-2.15l-10.18-2.45h0l-0.09,0h0L514,1070l-0.95-.27-8.73-2.42-1.52-.47-10.92-3.54-1.43-.52a307.6,307.6,0,0,1-43.84-19.37c-7.23-3.88-14.19-7.94-20.7-12.07l-0.65-.42c-3.09-2-6.29-4-9.33-6.22l-0.32-.22c-3.11-2.17-6.33-4.41-9.4-6.76A340.75,340.75,0,0,1,292.08,867.51a317.6,317.6,0,0,1-13.88-45.84l-2-9.53h0a7.05,7.05,0,0,1-.4-2v0h0v0L274,799.31c-0.59-4.29-1.15-8.65-1.68-13l-0.2-1.62-0.36-4.48-0.45-5.92a342.21,342.21,0,0,1,.24-47,336.61,336.61,0,0,1,6.77-45.51,355,355,0,0,1,12.51-43.3,344.53,344.53,0,0,1,17.77-40.46,332.31,332.31,0,0,1,48.76-70.42,302.35,302.35,0,0,1,62.68-53l8.55-5.18c1.88-1.17,3.86-2.24,5.77-3.28,1-.52,1.94-1,2.89-1.58,2.67-1.47,5.68-3.13,8.77-4.56l9.59-4.61,9.54-3.94,2.33-.91,4.81-1.84c5.27-2.11,10.14-3.63,14.85-5.09l3.5-1.09a284.64,284.64,0,0,1,69.91-11.21,290.13,290.13,0,0,1,32.7.63,299.73,299.73,0,0,1,30.65,4,283.35,283.35,0,0,1,28.3,6.65c3.06,0.87,6.09,1.85,9,2.79l4.19,1.34c4.53,1.62,8.63,3.14,12.57,4.65,36.33,14.44,61.56,33,76.34,46.08,3.49,2.93,6.63,6,9.66,8.88,1,1,2,1.92,3,2.85,1.29,1.32,2.5,2.62,3.67,3.88l1.73,1.85,2.52,2.71c0.54,0.6,1.06,1.21,1.56,1.81l0.78,0.92,1.63,1.92c2,2.36,3.91,4.61,5.6,6.84a26.64,26.64,0,0,0-8.21,9.65,250,250,0,0,0-36-19.53,268.9,268.9,0,0,0-34-12.43c-2-.58-4.06-1.12-6.07-1.64l-3.57-.94c-2.06-.54-4.23-1-6.33-1.49-1.23-.27-2.47-0.55-3.7-0.84-2.06-.46-4.23-0.85-6.33-1.23-1.37-.25-2.74-0.49-4.11-0.76-2.21-.4-4.52-0.73-6.76-1.06-1.34-.2-2.69-0.39-4-0.6a274.86,274.86,0,0,0-46.4-2.12c-7.07.22-14.66,0.84-24.63,2l-0.48.07c-8.05,1.22-16.38,2.49-24.57,4.54a235.2,235.2,0,0,0-49.55,17.5c-1.14.6-2.33,1.22-3.52,1.83-2.74,1.41-5.57,2.87-7.82,4.27l-4,2.3-8.15,5a1.37,1.37,0,0,1-.4.34l-0.08,0h0Zm400.5,103.15-18,208.15-1,1.42a205.27,205.27,0,0,1-17.5,67.29,247.11,247.11,0,0,1-18.65,34.23l-2.7,4.13,0,0c-0.18.28-.46,0.64-0.84,1.13l-0.32.46-1.77,2.57-1.19,1.73c-1.14,1.67-2.31,3.39-4.19,5.72l-3.33,4.26c-1.12,1.42-2.28,2.89-3.35,4.13l-1.79,2.12c-1.55,1.83-3.15,3.73-4.77,5.57-18.91,21.47-43.12,46.29-70.53,56.25C763.77,975,786.1,915.06,799.72,852.29A732.05,732.05,0,0,0,814.09,760c1.64-19,9.71-56.26-5.45-71.94-3.54-3.66-8.78-5.89-15.59-6.63-7.44-.81-16.85.23-27.95,3.08l-0.75.19L759.85,668l117.69-33.58,18.75,2Z" transform="translate(-130.86 -269.3)"/></svg>